<svg aria-hidden="true" style="position: absolute; width: 0; height: 0; overflow: hidden;" version="1.1" xmlns="http://www.w3.org/2000/svg" xmlns:xlink="http://www.w3.org/1999/xlink">
<defs>
<symbol id="icon-tensorflow" viewBox="0 0 32 32">
<path fill="#ff6f00" style="fill: var(--color1, #ff6f00)" d="M26.133 16l0.133 6.267-4.133-2.4v8.933l-5.467 3.2v-32l13.6 7.867v7.067l-8.133-4.8v3.6zM1.733 7.867l13.6-7.867v32l-5.467-3.2v-18.667l-8.133 4.8z"></path>
</symbol>
<symbol id="icon-c" viewBox="0 0 32 32">
<path fill="#a8b9cc" style="fill: var(--color2, #a8b9cc)" d="M22.697 12.288c0 0-0.515-4.391-5.273-4.513-4.76-0.121-7.203 3.293-7.203 8.173s2.701 8.784 7.331 8.784c4.631 0 5.147-4.88 5.147-4.88l8.875 0.488c0 0 0.521 4.408-3.192 7.771-3.715 3.363-8.272 3.912-11.456 3.889-3.184-0.024-7.597 0.045-11.867-3.959-4.265-4.001-4.992-7.891-4.992-11.711 0-3.821 0.809-8.881 5.885-12.72 3.448-2.605 6.945-3.567 10.443-3.567 14.6-0.001 15.579 12.329 15.579 12.329z"></path>
</symbol>
<symbol id="icon-django" viewBox="0 0 32 32">
<path d="M14.861 0h5.232v24.22c-2.684 0.509-4.655 0.713-6.795 0.713-6.388 0-9.717-2.888-9.717-8.427 0-5.335 3.533-8.8 9.004-8.8 0.849 0 1.495 0.068 2.276 0.272zM14.861 12.191c-0.496-0.173-1.067-0.273-1.662-0.273-0.037 0-0.074 0-0.111 0.001l0.005-0c-2.651 0-4.179 1.631-4.179 4.485 0 2.787 1.461 4.315 4.145 4.315 0.577 0 1.053-0.033 1.8-0.136zM28.419 8.080v12.129c0 4.179-0.305 6.184-1.223 7.916-0.849 1.665-1.971 2.719-4.281 3.873l-4.859-2.311c2.311-1.087 3.432-2.039 4.145-3.5 0.748-1.495 0.985-3.228 0.985-7.78v-10.329zM23.187 0.028h5.232v5.368h-5.232z"></path>
</symbol>
<symbol id="icon-sass" viewBox="0 0 32 32">
<path fill="#c69" style="fill: var(--color3, #c69)" d="M16 0c8.836 0 16 7.164 16 16s-7.164 16-16 16-16-7.164-16-16 7.164-16 16-16zM12.82 21.331c0.233 0.86 0.208 1.664-0.032 2.389l-0.087 0.24c-0.032 0.081-0.069 0.16-0.104 0.235-0.187 0.387-0.435 0.747-0.74 1.080-0.931 1.012-2.229 1.396-2.787 1.073-0.6-0.349-0.301-1.78 0.779-2.92 1.161-1.224 2.827-2.012 2.827-2.012v-0.004zM26.035 6.849c-0.723-2.844-5.436-3.779-9.896-2.193-2.652 0.943-5.525 2.424-7.591 4.356-2.457 2.295-2.848 4.295-2.687 5.131 0.569 2.948 4.609 4.876 6.271 6.307v0.008c-0.489 0.24-4.075 2.039-4.915 3.9-0.9 1.96 0.14 3.361 0.82 3.54 2.1 0.581 4.26-0.48 5.42-2.199 1.12-1.681 1.021-3.841 0.539-4.901 0.661-0.18 1.44-0.26 2.44-0.139 2.801 0.32 3.361 2.080 3.24 2.8-0.12 0.719-0.697 1.139-0.899 1.259-0.2 0.121-0.26 0.16-0.241 0.241 0.020 0.12 0.121 0.12 0.28 0.1 0.22-0.040 1.461-0.6 1.521-1.961 0.060-1.72-1.581-3.639-4.5-3.6-1.2 0.021-1.961 0.121-2.5 0.341-0.040-0.060-0.081-0.1-0.14-0.14-1.8-1.94-5.14-3.3-5-5.88 0.040-0.94 0.38-3.419 6.4-6.419 4.94-2.461 8.881-1.78 9.561-0.28 0.977 2.139-2.101 6.12-7.241 6.699-1.96 0.22-2.98-0.539-3.241-0.82-0.279-0.3-0.319-0.32-0.419-0.259-0.16 0.080-0.060 0.34 0 0.5 0.16 0.4 0.78 1.1 1.861 1.46 0.939 0.3 3.24 0.479 6-0.6 3.099-1.199 5.519-4.54 4.819-7.34z"></path>
</symbol>
<symbol id="icon-react" viewBox="0 0 32 32">
<path fill="#61dafb" style="fill: var(--color4, #61dafb)" d="M16 13.148c-1.575 0-2.852 1.277-2.852 2.852s1.277 2.852 2.852 2.852v0c1.575 0 2.852-1.277 2.852-2.852s-1.277-2.852-2.852-2.852v0zM8.011 21.673l-0.629-0.16c-4.691-1.185-7.381-3.197-7.381-5.519s2.691-4.333 7.381-5.519l0.629-0.159 0.177 0.624c0.545 1.86 1.163 3.443 1.899 4.957l-0.082-0.186 0.135 0.284-0.135 0.284c-0.656 1.329-1.275 2.912-1.761 4.551l-0.056 0.22zM7.089 11.933c-3.565 1.001-5.753 2.533-5.753 4.061 0 1.527 2.188 3.059 5.753 4.061 0.512-1.62 1.046-2.965 1.662-4.263l-0.086 0.202c-0.531-1.098-1.066-2.443-1.511-3.828l-0.065-0.234zM23.989 21.673l-0.177-0.625c-0.544-1.859-1.162-3.441-1.9-4.954l0.081 0.184-0.135-0.284 0.135-0.284c0.656-1.329 1.275-2.911 1.762-4.55l0.056-0.221 0.177-0.624 0.631 0.159c4.689 1.185 7.38 3.197 7.38 5.52s-2.691 4.333-7.38 5.519zM23.335 15.995c0.64 1.385 1.169 2.747 1.576 4.061 3.567-1.003 5.753-2.535 5.753-4.061 0-1.528-2.188-3.059-5.753-4.061-0.511 1.619-1.045 2.963-1.662 4.262l0.086-0.2zM7.080 11.927l-0.177-0.623c-1.319-4.648-0.919-7.979 1.097-9.141 1.977-1.141 5.152 0.207 8.479 3.621l0.453 0.465-0.453 0.465c-1.146 1.19-2.207 2.482-3.162 3.853l-0.068 0.103-0.18 0.257-0.313 0.027c-1.875 0.151-3.596 0.439-5.264 0.86l0.218-0.047zM9.608 3.087c-0.357 0-0.673 0.077-0.94 0.231-1.325 0.764-1.56 3.42-0.647 7.004 1.21-0.285 2.681-0.521 4.18-0.658l0.131-0.010c0.894-1.264 1.792-2.37 2.756-3.414l-0.020 0.022c-2.080-2.025-4.049-3.175-5.46-3.175zM22.393 30.236c-0.001 0-0.001 0 0 0-1.9 0-4.34-1.431-6.872-4.031l-0.453-0.465 0.453-0.465c1.146-1.19 2.206-2.482 3.16-3.854l0.068-0.103 0.18-0.257 0.312-0.027c1.875-0.15 3.597-0.438 5.267-0.858l-0.218 0.046 0.629-0.159 0.179 0.624c1.316 4.645 0.917 7.977-1.099 9.139-0.449 0.259-0.988 0.411-1.562 0.411-0.016 0-0.031-0-0.047-0l0.002 0zM16.932 25.728c2.080 2.025 4.049 3.175 5.46 3.175h0.001c0.356 0 0.673-0.077 0.939-0.231 1.325-0.764 1.561-3.421 0.647-7.005-1.212 0.286-2.682 0.522-4.182 0.658l-0.13 0.010c-0.893 1.265-1.791 2.371-2.755 3.416l0.020-0.022zM24.92 11.927l-0.629-0.159c-1.453-0.376-3.175-0.664-4.939-0.806l-0.111-0.007-0.312-0.027-0.18-0.257c-1.021-1.474-2.082-2.766-3.237-3.966l0.009 0.010-0.453-0.465 0.453-0.465c3.325-3.413 6.499-4.761 8.479-3.621 2.016 1.163 2.416 4.493 1.099 9.14zM19.667 9.653c1.523 0.139 2.969 0.364 4.312 0.668 0.915-3.584 0.679-6.24-0.647-7.004-1.317-0.761-3.793 0.405-6.4 2.944 0.943 1.022 1.841 2.128 2.666 3.289l0.069 0.103zM9.608 30.236c-0.014 0-0.030 0-0.046 0-0.574 0-1.113-0.152-1.577-0.419l0.015 0.008c-2.016-1.161-2.416-4.492-1.097-9.139l0.176-0.624 0.629 0.159c1.54 0.388 3.239 0.661 5.047 0.812l0.313 0.027 0.179 0.257c1.022 1.475 2.083 2.767 3.239 3.967l-0.010-0.010 0.453 0.465-0.453 0.465c-2.531 2.6-4.971 4.031-6.868 4.031zM8.021 21.667c-0.915 3.584-0.679 6.241 0.647 7.005 1.316 0.751 3.791-0.407 6.4-2.944-0.943-1.022-1.841-2.129-2.667-3.29l-0.069-0.103c-1.629-0.146-3.099-0.382-4.534-0.711l0.224 0.043zM16 22.504c-1.097 0-2.225-0.048-3.355-0.141l-0.313-0.027-0.18-0.257c-0.544-0.768-1.139-1.691-1.697-2.639l-0.103-0.19c-0.452-0.758-0.971-1.732-1.45-2.728l-0.105-0.243-0.133-0.284 0.133-0.284c0.584-1.239 1.102-2.212 1.658-3.161l-0.103 0.191c0.552-0.955 1.159-1.907 1.8-2.829l0.18-0.257 0.313-0.027c1.005-0.090 2.174-0.142 3.355-0.142s2.35 0.052 3.505 0.153l-0.15-0.011 0.312 0.027 0.179 0.257c1.177 1.666 2.294 3.567 3.252 5.56l0.104 0.24 0.135 0.284-0.135 0.284c-1.058 2.232-2.176 4.133-3.439 5.925l0.083-0.125-0.179 0.257-0.312 0.027c-1.129 0.093-2.259 0.141-3.356 0.141zM13.071 21.059c1.973 0.148 3.885 0.148 5.86 0 1.004-1.445 1.978-3.104 2.827-4.836l0.101-0.228c-0.947-1.958-1.922-3.617-3.012-5.19l0.083 0.126c-0.877-0.071-1.898-0.111-2.929-0.111s-2.052 0.040-3.063 0.119l0.134-0.008c-1.008 1.447-1.983 3.106-2.83 4.84l-0.099 0.224c0.951 1.96 1.926 3.619 3.014 5.193l-0.085-0.13z"></path>
</symbol>
<symbol id="icon-chevron-thin-up" viewBox="0 0 20 20">
<path d="M2.582 13.891c-0.272 0.268-0.709 0.268-0.979 0s-0.271-0.701 0-0.969l7.908-7.83c0.27-0.268 0.707-0.268 0.979 0l7.908 7.83c0.27 0.268 0.27 0.701 0 0.969s-0.709 0.268-0.978 0l-7.42-7.141-7.418 7.141z"></path>
</symbol>
<symbol id="icon-squared-plus" viewBox="0 0 20 20">
<path d="M16 2h-12c-1.1 0-2 0.9-2 2v12c0 1.1 0.9 2 2 2h12c1.1 0 2-0.9 2-2v-12c0-1.1-0.9-2-2-2zM15 11h-4v4h-2v-4h-4v-2h4v-4h2v4h4v2z"></path>
</symbol>
<symbol id="icon-tux" viewBox="0 0 32 32">
<path d="M17.739 23.029c-2.561 1.191-4.942 1.179-6.542 1.063-1.908-0.138-3.442-0.66-4.117-1.117-0.416-0.281-0.981-0.173-1.262 0.243s-0.173 0.981 0.243 1.262c1.084 0.734 3.002 1.28 5.005 1.424 0.34 0.024 0.712 0.040 1.114 0.040 1.743 0 3.957-0.166 6.326-1.268 0.455-0.212 0.652-0.752 0.441-1.207s-0.752-0.652-1.208-0.441zM27.842 21.682c0.087-7.896 0.899-22.819-14.218-21.613-14.925 1.201-10.968 16.968-11.19 22.248-0.197 2.793-1.124 6.208-2.434 9.683h4.034c0.415-1.473 0.72-2.929 0.851-4.317 0.243 0.17 0.503 0.334 0.781 0.491 0.452 0.266 0.84 0.62 1.251 0.995 0.961 0.876 2.050 1.868 4.179 1.992 0.143 0.008 0.287 0.012 0.427 0.012 2.153 0 3.625-0.942 4.809-1.699 0.567-0.363 1.057-0.676 1.518-0.827 1.31-0.41 2.454-1.072 3.309-1.914 0.134-0.131 0.258-0.267 0.374-0.405 0.476 1.746 1.129 3.711 1.853 5.672h8.614c-2.068-3.195-4.201-6.324-4.158-10.318zM3.878 17.386c0-0 0-0.001-0-0.001-0.148-2.577 1.085-4.745 2.754-4.842s3.142 1.913 3.291 4.49c0 0 0 0.001 0 0.001 0.008 0.139 0.011 0.276 0.012 0.413-0.529 0.133-1.006 0.326-1.434 0.551-0.002-0.019-0.003-0.038-0.005-0.057 0-0 0-0.001 0-0.001-0.143-1.463-0.924-2.567-1.745-2.467s-1.371 1.367-1.228 2.83c0 0 0 0.001 0 0.001 0.062 0.638 0.246 1.207 0.501 1.639-0.064 0.050-0.243 0.182-0.45 0.333-0.155 0.114-0.344 0.252-0.572 0.42-0.621-0.815-1.047-1.987-1.123-3.309zM20.789 23.756c-0.059 1.362-1.841 2.643-3.487 3.158l-0.009 0.003c-0.684 0.222-1.295 0.613-1.941 1.026-1.085 0.695-2.208 1.413-3.829 1.413-0.106 0-0.215-0.003-0.323-0.009-1.485-0.087-2.179-0.72-3.059-1.521-0.464-0.423-0.943-0.86-1.562-1.223l-0.013-0.008c-1.335-0.753-2.163-1.69-2.216-2.506-0.026-0.406 0.154-0.757 0.537-1.044 0.832-0.624 1.39-1.032 1.759-1.302 0.41-0.3 0.533-0.39 0.625-0.477 0.066-0.062 0.136-0.131 0.213-0.205 0.764-0.743 2.043-1.986 4.005-1.986 1.2 0 2.528 0.462 3.943 1.372 0.666 0.434 1.246 0.634 1.981 0.887 0.505 0.174 1.077 0.372 1.843 0.7l0.012 0.005c0.715 0.294 1.559 0.83 1.521 1.717zM20.395 20.556c-0.137-0.069-0.28-0.135-0.43-0.196-0.691-0.296-1.245-0.496-1.704-0.656 0.254-0.497 0.411-1.116 0.426-1.789 0-0 0-0.001 0-0.001 0.035-1.637-0.79-2.966-1.844-2.968s-1.936 1.322-1.971 2.959c0 0 0 0.001 0 0.001-0.001 0.054-0.001 0.107-0.001 0.16-0.649-0.299-1.287-0.515-1.911-0.649-0.003-0.061-0.006-0.123-0.008-0.185 0-0 0-0.001 0-0.002-0.061-2.982 1.769-5.45 4.086-5.513s4.245 2.303 4.305 5.285c0 0.001 0 0.001 0 0.002 0.027 1.348-0.333 2.59-0.949 3.552z"></path>
</symbol>
</defs>
</svg>
